<svg width="249" height="87" viewBox="0 0 249 87" fill="none" xmlns="http://www.w3.org/2000/svg">
<g clip-path="url(#clip0_301_388)">
<path d="M0.0670797 54.9845C0.0419248 51.4682 0.0251549 49.7143 0 46.198C0.184469 46.1729 0.268319 46.1561 0.452788 46.1225C2.58257 50.0835 6.26357 55.0852 10.9843 54.397C15.8979 53.6921 16.8706 48.6065 16.8706 43.9658V16.3141C16.8706 12.7559 16.1578 9.49976 15.7721 7.67031V7.4689C18.623 7.07447 20.0401 6.88985 22.891 6.5206V6.72201C22.4382 8.66056 21.7255 12.1097 21.7255 15.6679V42.0524C21.7255 51.9885 17.2563 55.9831 11.3113 56.8391C7.11045 57.4433 3.10244 56.3104 0.0670797 54.9761V54.9845Z" fill="#C33021"/>
<path d="M36.9524 29.2714C36.9524 37.9487 36.9524 42.279 36.9524 50.9563C42.2685 50.3689 44.9349 50.0919 50.2594 49.5968C54.4854 49.2024 58.4431 45.7784 60.6567 44.2595C60.7574 44.2595 60.8161 44.2511 60.9167 44.2427C60.9167 46.903 60.9167 48.2289 60.9167 50.8892C50.9218 51.6948 40.9437 52.6851 30.9907 53.8599V53.6585C31.3764 51.7284 32.0892 48.296 32.0892 44.7294C32.0892 34.6171 32.0892 24.4963 32.0892 14.3839C32.0892 10.8257 31.3764 7.55282 30.9907 5.71497V5.51356C40.885 4.33868 50.796 3.35681 60.7238 2.55957C60.7238 5.21984 60.7238 6.54578 60.7238 9.20605C60.6232 9.20605 60.5645 9.21444 60.4639 9.22283C58.2503 8.05634 54.2925 5.30376 50.0665 5.69818C44.8175 6.19331 42.193 6.46186 36.9524 7.04091C36.9524 15.0972 36.9524 19.1254 36.9524 27.1817C40.5328 26.7873 42.3272 26.5943 45.9076 26.2418C49.8653 25.8474 53.5714 24.169 55.6509 23.3214C55.7264 23.3214 55.7683 23.313 55.8438 23.3046V29.2797C55.7683 29.2797 55.7264 29.2881 55.6509 29.2965C53.5714 28.8098 49.8653 27.9286 45.9076 28.3231C42.3272 28.6755 40.5328 28.8685 36.9524 29.263V29.2714Z" fill="#C33021"/>
<path d="M66.5767 2.1148C78.8774 1.29238 91.1614 0.679764 103.487 0.276947C103.487 3.41556 103.487 4.99326 103.487 8.13187C103.387 8.13187 103.328 8.13187 103.227 8.13187C101.207 6.36955 97.492 2.65189 93.4589 2.81134C91.0859 2.90365 89.9036 2.954 87.5307 3.0631C87.5307 15.4413 87.5307 27.8111 87.5307 40.1894C87.5307 43.7476 88.2434 47.0708 88.6375 48.9338V49.1352C85.7698 49.2611 84.336 49.3367 81.4767 49.4877V49.2863C81.9295 47.3813 82.6506 43.9909 82.6506 40.4243C82.6506 28.0461 82.6506 15.6763 82.6506 3.29807C80.2022 3.42395 78.978 3.49948 76.5296 3.64214C72.5635 3.88551 68.849 7.96403 66.7695 9.93615C66.694 9.93615 66.6521 9.94455 66.5767 9.95294C66.5767 6.81433 66.5767 5.23663 66.5767 2.09801V2.1148Z" fill="#C33021"/>
<path d="M106.741 38.5361C110.598 27.5762 114.463 16.6162 118.337 5.66461C119.184 3.44073 118.731 1.30076 118.144 0.159448V0.025176C120.593 0.00839201 121.817 0 124.265 0C129.103 13.0664 133.925 26.1327 138.729 39.1991C140.029 42.9168 141.203 45.8959 142.771 48.4135V48.5478C139.459 48.4723 137.807 48.4387 134.495 48.3967V48.1953C134.948 46.0554 134.629 42.6902 133.254 38.9809C132.214 36.1192 131.686 34.6926 130.646 31.8393C123.033 31.7806 119.226 31.7973 111.621 31.9232C110.866 34.08 110.489 35.1625 109.734 37.3277C108.233 41.7167 108.166 45.7533 108.82 48.2205V48.4891C106.296 48.5394 105.03 48.573 102.498 48.6401V48.5058C103.797 46.4582 105.365 42.5223 106.732 38.5277L106.741 38.5361ZM129.741 29.4224C126.814 21.4248 123.879 13.4356 120.945 5.44642C118.119 13.4608 115.293 21.4752 112.476 29.4979C119.385 29.3972 122.84 29.3804 129.741 29.4224Z" fill="#C33021"/>
<path d="M156.849 49.0009C153.982 48.8835 152.548 48.8331 149.688 48.7408V48.5394C150.083 46.668 150.795 43.3363 150.795 39.7781C150.795 29.6658 150.795 19.545 150.795 9.43261C150.795 5.87439 150.074 2.49241 149.688 0.60421V0.402802C152.556 0.495114 153.99 0.545466 156.849 0.662954V0.864362C156.396 2.72739 155.675 6.05063 155.675 9.60884C155.675 19.7212 155.675 29.842 155.675 39.9544C155.675 43.5126 156.388 46.8946 156.849 48.7995V49.0009Z" fill="#C33021"/>
<path d="M170.19 7.96403C170.123 8.70253 170.123 9.5753 170.123 10.3809C170.123 19.4443 170.123 28.5077 170.123 37.5711C170.123 42.472 171.489 47.0456 172.269 49.5129V49.8486C169.586 49.6891 168.244 49.6136 165.561 49.4709V49.1353C166.341 46.7603 167.708 42.3377 167.708 37.4368C167.708 28.3734 167.708 19.31 167.708 10.2467C167.708 6.68845 166.668 3.2729 166.014 1.35952V1.15811C168.722 1.30078 170.072 1.3763 172.781 1.54414C178.105 16.2637 183.421 30.9833 188.721 45.7113C194.162 31.8393 199.621 17.9673 205.088 4.10371C207.453 4.34708 208.635 4.47296 210.991 4.72472V4.92613C210.605 6.76398 209.893 10.0453 209.893 13.6035C209.893 23.7158 209.893 33.8366 209.893 43.949C209.893 47.5072 210.605 50.9395 210.991 52.8613V53.0627C208.19 52.7522 206.79 52.6095 203.981 52.3242V52.1228C204.367 50.285 205.088 46.9953 205.088 43.4371C205.088 32.5191 205.088 21.5927 205.088 10.6747C199.814 24.1103 194.556 37.5459 189.299 50.9899C187.84 50.8724 187.119 50.8137 185.66 50.7046C180.512 36.4549 175.355 22.2053 170.173 7.96403H170.19Z" fill="#C33021"/>
<path d="M225.137 30.8323C225.137 39.5096 225.137 43.8399 225.137 52.5172C230.444 53.197 233.102 53.5578 238.402 54.3215C242.602 54.9257 246.543 52.4501 248.74 51.4598C248.841 51.4766 248.891 51.485 249 51.5018V58.1483C239.089 56.579 229.145 55.1943 219.175 53.9942V53.7928C219.561 51.9633 220.273 48.6905 220.273 45.1323V14.7867C220.273 11.2285 219.561 7.78779 219.175 5.85763V5.65622C229.077 6.83949 238.955 8.21578 248.807 9.7767V16.4232C248.707 16.4064 248.656 16.398 248.547 16.3812C246.35 14.6944 242.41 10.9935 238.209 10.3893C232.985 9.63403 230.369 9.28157 225.137 8.61021C225.137 16.6665 225.137 20.6947 225.137 28.751C228.709 29.2042 230.494 29.4476 234.066 29.9427C238.016 30.4882 241.697 29.6993 243.768 29.3385C243.843 29.3469 243.885 29.3553 243.961 29.3637V35.3388C243.885 35.3304 243.843 35.322 243.768 35.3136C241.697 34.3317 238.016 32.5694 234.066 32.0239C230.494 31.5288 228.709 31.2854 225.137 30.8323Z" fill="#C33021"/>
<path d="M227.149 81.8305H183.53V82.6697H227.149V81.8305Z" fill="#956A2E"/>
<path d="M55.2234 81.8305H11.1855V82.6697H55.2234V81.8305Z" fill="#956A2E"/>
<path d="M73.771 86.3538C73.0667 85.9174 72.5216 85.3048 72.1359 84.5076C71.7502 83.7103 71.5574 82.7704 71.5574 81.6879C71.5574 80.6053 71.7502 79.6654 72.1443 78.8765C72.5384 78.0877 73.0834 77.4667 73.7878 77.0387C74.4921 76.6107 75.3138 76.3925 76.253 76.3925C77.0915 76.3925 77.8126 76.552 78.4163 76.8792C79.02 77.2065 79.4979 77.6261 79.8501 78.1464C80.2023 78.6667 80.4203 79.2122 80.4958 79.7997V79.8752H78.9529L78.9361 79.7997C78.8104 79.2626 78.5253 78.7926 78.0809 78.3982C77.6365 78.0038 77.0244 77.8024 76.253 77.8024C75.6409 77.8024 75.1042 77.9618 74.643 78.2807C74.1819 78.5996 73.8213 79.0528 73.5614 79.6318C73.3015 80.2109 73.1757 80.899 73.1757 81.7046C73.1757 82.5271 73.3098 83.2236 73.5698 83.8027C73.8297 84.3817 74.1986 84.8265 74.6598 85.137C75.121 85.4475 75.666 85.6069 76.2697 85.6069C76.9908 85.6069 77.5778 85.4223 78.039 85.0531C78.5001 84.6838 78.802 84.2055 78.9445 83.6096L78.9613 83.5341H80.5125V83.6012C80.4119 84.2474 80.1771 84.8265 79.7914 85.3384C79.4057 85.8503 78.9194 86.2615 78.3157 86.5636C77.7119 86.8657 77.0328 87.0168 76.2697 87.0168C75.3138 87.0168 74.4837 86.7986 73.771 86.3622V86.3538Z" fill="#956A2E"/>
<path d="M88.2266 72.6161H89.8114V78.2807H89.8533C90.1217 77.6933 90.5325 77.2233 91.0859 76.8876C91.6393 76.5519 92.3101 76.3841 93.0815 76.3841C93.8194 76.3841 94.4567 76.5603 95.0017 76.9044C95.5467 77.2485 95.9744 77.7352 96.2846 78.3562C96.5948 78.9772 96.7458 79.7073 96.7458 80.5298V86.807H95.161V80.7983C95.161 79.85 94.9262 79.1115 94.4651 78.5828C94.0039 78.0541 93.3582 77.794 92.5365 77.794C91.9915 77.794 91.5136 77.9198 91.1027 78.18C90.6918 78.4402 90.3732 78.7926 90.1468 79.2458C89.9204 79.6989 89.803 80.2276 89.803 80.8235V86.8154H88.2183V72.6245L88.2266 72.6161Z" fill="#956A2E"/>
<path d="M105.139 74.5127C104.946 74.3197 104.846 74.0763 104.846 73.8078C104.846 73.5392 104.946 73.2875 105.139 73.0944C105.332 72.9014 105.575 72.8007 105.844 72.8007C106.112 72.8007 106.372 72.9014 106.565 73.0944C106.757 73.2875 106.858 73.5224 106.858 73.8078C106.858 74.0931 106.757 74.3197 106.565 74.5127C106.372 74.7057 106.129 74.8064 105.844 74.8064C105.558 74.8064 105.332 74.7057 105.139 74.5127ZM105.064 76.5771H106.648V86.807H105.064V76.5771Z" fill="#956A2E"/>
<path d="M116.719 86.3538C116.014 85.9174 115.469 85.3048 115.084 84.5076C114.698 83.7103 114.505 82.7704 114.505 81.6879C114.505 80.6053 114.698 79.6654 115.092 78.8765C115.486 78.0877 116.031 77.4667 116.736 77.0387C117.44 76.6107 118.262 76.3925 119.201 76.3925C120.039 76.3925 120.76 76.552 121.364 76.8792C121.968 77.2065 122.446 77.6261 122.798 78.1464C123.15 78.6667 123.368 79.2122 123.444 79.7997V79.8752H121.901L121.884 79.7997C121.758 79.2626 121.473 78.7926 121.029 78.3982C120.584 78.0038 119.972 77.8024 119.201 77.8024C118.589 77.8024 118.052 77.9618 117.591 78.2807C117.13 78.5996 116.769 79.0528 116.509 79.6318C116.249 80.2109 116.123 80.899 116.123 81.7046C116.123 82.5271 116.258 83.2236 116.518 83.8027C116.777 84.3817 117.146 84.8265 117.608 85.137C118.069 85.4475 118.614 85.6069 119.217 85.6069C119.939 85.6069 120.526 85.4223 120.987 85.0531C121.448 84.6838 121.75 84.2055 121.892 83.6096L121.909 83.5341H123.46V83.6012C123.36 84.2474 123.125 84.8265 122.739 85.3384C122.353 85.8503 121.867 86.2615 121.263 86.5636C120.66 86.8657 119.981 87.0168 119.217 87.0168C118.262 87.0168 117.431 86.7986 116.719 86.3622V86.3538Z" fill="#956A2E"/>
<path d="M131.225 72.6161H132.81V86.807H131.225V72.6161ZM132.441 81.1927H132.835L137.488 76.5771H139.417L134.554 81.369H134.428L132.441 83.2572V81.1927ZM133.715 81.8389L134.763 80.7899L139.543 86.807H137.698L133.715 81.8389Z" fill="#956A2E"/>
<path d="M147.945 86.3538C147.24 85.9174 146.704 85.3132 146.326 84.516C145.949 83.7187 145.764 82.7956 145.764 81.7298C145.764 80.6556 145.957 79.7241 146.335 78.9269C146.712 78.1296 147.249 77.5002 147.928 77.0555C148.607 76.6107 149.42 76.3841 150.343 76.3841C151.265 76.3841 152.062 76.6023 152.732 77.0303C153.403 77.4583 153.923 78.0625 154.284 78.8262C154.644 79.5898 154.82 80.4962 154.82 81.52V82.1074H146.544V80.8654H154.04L153.235 82.0067V81.4109C153.235 80.6053 153.11 79.9339 152.858 79.3968C152.607 78.8597 152.263 78.4569 151.835 78.1884C151.407 77.9198 150.896 77.794 150.326 77.794C149.756 77.794 149.244 77.9366 148.8 78.2136C148.355 78.4905 147.995 78.9017 147.743 79.4388C147.492 79.9759 147.358 80.6388 147.358 81.4193V82.0151C147.358 82.7704 147.483 83.4166 147.743 83.9537C148.003 84.4908 148.364 84.902 148.825 85.1789C149.286 85.4559 149.848 85.5985 150.477 85.5985C150.93 85.5985 151.332 85.5314 151.693 85.3887C152.053 85.2461 152.347 85.0614 152.59 84.8097C152.833 84.5579 153.001 84.281 153.11 83.9621L153.143 83.8698H154.694L154.678 83.9705C154.594 84.3985 154.434 84.7929 154.191 85.1621C153.948 85.5314 153.646 85.8503 153.269 86.1272C152.892 86.4042 152.472 86.614 151.994 86.7734C151.516 86.9329 151.005 87.0084 150.443 87.0084C149.471 87.0084 148.64 86.7902 147.936 86.3622L147.945 86.3538Z" fill="#956A2E"/>
<path d="M162.584 76.5771H164.169V78.1212H164.211C164.479 77.6261 164.882 77.2065 165.419 76.8792C165.955 76.5519 166.618 76.3841 167.406 76.3841C168.529 76.3841 169.41 76.7282 170.03 77.4079C170.651 78.0877 170.961 79.0192 170.961 80.2025V86.8154H169.385V80.4794C169.385 79.6066 169.175 78.9437 168.764 78.4821C168.353 78.0205 167.741 77.794 166.928 77.794C166.374 77.794 165.888 77.9198 165.477 78.1716C165.066 78.4234 164.739 78.7674 164.513 79.2122C164.287 79.657 164.169 80.1857 164.169 80.7899V86.8154H162.584V76.5855V76.5771Z" fill="#956A2E"/>
</g>
<defs>
<clipPath id="clip0_301_388">
<rect width="249" height="87" fill="white"/>
</clipPath>
</defs>
</svg>
