<svg width="187" height="76" viewBox="0 0 187 76" fill="none" xmlns="http://www.w3.org/2000/svg">
<g clip-path="url(#clip0_352_915)">
<path d="M51.4217 75.1275C50.8375 74.7647 50.3854 74.2553 50.0655 73.5925C49.7455 72.9297 49.5856 72.1482 49.5856 71.2482C49.5856 70.3481 49.7455 69.5667 50.0724 68.9108C50.3993 68.255 50.8514 67.7387 51.4356 67.3828C52.0199 67.027 52.7015 66.8456 53.4804 66.8456C54.176 66.8456 54.7741 66.9782 55.2749 67.2503C55.7756 67.5224 56.1721 67.8712 56.4642 68.3038C56.7563 68.7364 56.9371 69.1899 56.9997 69.6783V69.7411H55.72L55.7061 69.6783C55.6017 69.2318 55.3653 68.8411 54.9967 68.5131C54.628 68.1852 54.1203 68.0178 53.4804 68.0178C52.9727 68.0178 52.5276 68.1503 52.1451 68.4155C51.7625 68.6806 51.4635 69.0574 51.2478 69.5388C51.0322 70.0202 50.9279 70.5923 50.9279 71.2621C50.9279 71.9459 51.0392 72.525 51.2548 73.0064C51.4704 73.4879 51.7764 73.8576 52.159 74.1158C52.5415 74.374 52.9936 74.5065 53.4943 74.5065C54.0925 74.5065 54.5793 74.353 54.9619 74.046C55.3444 73.739 55.5948 73.3413 55.713 72.846L55.7269 72.7832H57.0136V72.839C56.9302 73.3762 56.7354 73.8577 56.4155 74.2833C56.0956 74.7089 55.6922 75.0507 55.1914 75.3019C54.6906 75.5531 54.1273 75.6787 53.4943 75.6787C52.7015 75.6787 52.0129 75.4973 51.4217 75.1345V75.1275Z" fill="#956A2E"/>
<path d="M63.4124 63.7059H64.7269V68.4155H64.7616C64.9842 67.9271 65.325 67.5363 65.784 67.2573C66.2431 66.9782 66.7995 66.8386 67.4394 66.8386C68.0514 66.8386 68.58 66.9851 69.0321 67.2712C69.4842 67.5573 69.8389 67.962 70.0962 68.4783C70.3536 68.9946 70.4787 69.6016 70.4787 70.2853V75.5043H69.1642V70.5086C69.1642 69.7202 68.9695 69.1062 68.587 68.6666C68.2044 68.2271 67.6689 68.0108 66.9873 68.0108C66.5352 68.0108 66.1388 68.1155 65.798 68.3317C65.4572 68.548 65.1929 68.8411 65.0051 69.2178C64.8173 69.5946 64.7199 70.0342 64.7199 70.5295V75.5112H63.4054V63.7129L63.4124 63.7059Z" fill="#956A2E"/>
<path d="M77.4407 65.2827C77.2807 65.1222 77.1973 64.9199 77.1973 64.6966C77.1973 64.4734 77.2807 64.2641 77.4407 64.1036C77.6007 63.9431 77.8024 63.8594 78.0249 63.8594C78.2475 63.8594 78.4631 63.9431 78.6231 64.1036C78.783 64.2641 78.8665 64.4594 78.8665 64.6966C78.8665 64.9339 78.783 65.1222 78.6231 65.2827C78.4631 65.4432 78.2614 65.5269 78.0249 65.5269C77.7885 65.5269 77.6007 65.4432 77.4407 65.2827ZM77.3781 66.9991H78.6926V75.5043H77.3781V66.9991Z" fill="#956A2E"/>
<path d="M87.0459 75.1275C86.4616 74.7647 86.0096 74.2553 85.6896 73.5925C85.3697 72.9297 85.2097 72.1482 85.2097 71.2482C85.2097 70.3481 85.3697 69.5667 85.6966 68.9108C86.0235 68.255 86.4755 67.7387 87.0598 67.3828C87.644 67.027 88.3256 66.8456 89.1046 66.8456C89.8001 66.8456 90.3982 66.9782 90.899 67.2503C91.3998 67.5224 91.7962 67.8712 92.0883 68.3038C92.3804 68.7364 92.5613 69.1899 92.6239 69.6783V69.7411H91.3441L91.3302 69.6783C91.2259 69.2318 90.9894 68.8411 90.6208 68.5131C90.2522 68.1852 89.7445 68.0178 89.1046 68.0178C88.5969 68.0178 88.1517 68.1503 87.7692 68.4155C87.3867 68.6806 87.0876 69.0574 86.872 69.5388C86.6564 70.0202 86.5521 70.5923 86.5521 71.2621C86.5521 71.9459 86.6633 72.525 86.879 73.0064C87.0946 73.4879 87.4006 73.8576 87.7831 74.1158C88.1656 74.374 88.6177 74.5065 89.1185 74.5065C89.7166 74.5065 90.2035 74.353 90.586 74.046C90.9685 73.739 91.2189 73.3413 91.3372 72.846L91.3511 72.7832H92.6378V72.839C92.5543 73.3762 92.3596 73.8577 92.0396 74.2833C91.7197 74.7089 91.3163 75.0507 90.8155 75.3019C90.3148 75.5531 89.7514 75.6787 89.1185 75.6787C88.3256 75.6787 87.6371 75.4973 87.0459 75.1345V75.1275Z" fill="#956A2E"/>
<path d="M99.0781 63.7059H100.393V75.5043H99.0781V63.7059ZM100.087 70.8365H100.414L104.274 66.9991H105.873L101.839 70.9831H101.735L100.087 72.5529V70.8365ZM101.144 71.3738L102.013 70.5016L105.978 75.5043H104.447L101.144 71.3738Z" fill="#956A2E"/>
<path d="M112.947 75.1275C112.362 74.7647 111.917 74.2623 111.604 73.5995C111.291 72.9367 111.138 72.1692 111.138 71.2831C111.138 70.39 111.298 69.6155 111.611 68.9527C111.924 68.2899 112.369 67.7666 112.933 67.3968C113.496 67.027 114.171 66.8386 114.936 66.8386C115.701 66.8386 116.362 67.02 116.918 67.3759C117.474 67.7317 117.906 68.2341 118.205 68.869C118.504 69.5039 118.65 70.2574 118.65 71.1087V71.5971H111.785V70.5644H118.003L117.335 71.5133V71.018C117.335 70.3481 117.231 69.79 117.022 69.3434C116.814 68.8969 116.529 68.562 116.174 68.3387C115.819 68.1155 115.395 68.0108 114.922 68.0108C114.449 68.0108 114.025 68.1294 113.656 68.3597C113.287 68.5899 112.988 68.9318 112.78 69.3783C112.571 69.8249 112.46 70.3761 112.46 71.0249V71.5203C112.46 72.1483 112.564 72.6855 112.78 73.132C112.995 73.5786 113.294 73.9205 113.677 74.1507C114.059 74.3809 114.525 74.4996 115.047 74.4996C115.423 74.4996 115.757 74.4437 116.056 74.3251C116.355 74.2065 116.598 74.053 116.8 73.8437C117.001 73.6344 117.141 73.4041 117.231 73.139L117.259 73.0623H118.546L118.532 73.146C118.462 73.5018 118.33 73.8297 118.128 74.1367C117.926 74.4437 117.676 74.7089 117.363 74.9391C117.05 75.1694 116.702 75.3438 116.306 75.4764C115.91 75.6089 115.485 75.6717 115.019 75.6717C114.212 75.6717 113.524 75.4903 112.94 75.1345L112.947 75.1275Z" fill="#956A2E"/>
<path d="M125.09 66.9991H126.405V68.2829H126.44C126.662 67.8712 126.996 67.5224 127.441 67.2503C127.886 66.9782 128.436 66.8386 129.089 66.8386C130.021 66.8386 130.752 67.1247 131.266 67.6898C131.781 68.255 132.038 69.0295 132.038 70.0132V75.5112H130.731V70.2435C130.731 69.5179 130.557 68.9667 130.216 68.5829C129.875 68.1992 129.368 68.0108 128.693 68.0108C128.234 68.0108 127.831 68.1155 127.49 68.3248C127.149 68.5341 126.878 68.8201 126.69 69.1899C126.502 69.5597 126.405 69.9993 126.405 70.5016V75.5112H125.09V67.0061V66.9991Z" fill="#956A2E"/>
<path d="M10.9453 52.6533C8.00848 52.967 3.82541 52.5661 0.792687 51.6772C0.757828 47.8776 0.722969 44.0751 0.68811 40.2697C0.862405 40.2522 1.0367 40.2319 1.21099 40.2087C3.40711 43.8601 6.91043 50.2219 10.161 49.8646C12.6709 49.5944 13.4029 46.4223 13.4029 42.7446C13.4029 35.8077 13.4029 28.8447 13.4029 21.8554C13.4029 18.1953 12.2003 14.4566 12.0957 13.7682C12.0957 13.6927 12.0957 13.62 12.0957 13.5503C15.599 12.9519 19.1052 12.3535 22.6144 11.7551C22.6144 11.8248 22.6144 11.8974 22.6144 11.9729C22.4575 12.7311 21.2549 16.9403 21.2549 20.6615C21.2549 26.9826 21.2549 33.2659 21.2549 39.5115C21.2549 46.675 18.1611 51.8864 10.9453 52.6533ZM38.449 49.9692C31.9566 50.6489 25.3595 46.7011 25.3595 37.2282C25.3595 28.4264 30.8585 22.2825 38.5536 21.1757C47.033 19.9905 50.4928 26.4655 50.4928 33.6203C44.8166 34.2652 39.1433 34.9217 33.4729 35.5899C33.9958 41.298 36.4534 45.1151 41.7955 44.5486C44.5145 44.261 46.972 43.0671 49.9612 40.383C50.0309 40.412 50.1006 40.4411 50.1703 40.4701C48.7585 44.5312 44.7236 49.3243 38.449 49.9692ZM33.4206 33.6203C33.4206 33.8382 33.4206 34.0561 33.4206 34.2826C36.6451 33.3531 39.8753 32.4235 43.1114 31.4939C43.0068 27.1104 41.9523 22.9274 38.449 23.4067C34.6233 23.9383 33.3683 28.9754 33.4206 33.6203ZM62.7544 47.529C58.3535 47.9561 55.7913 45.0279 55.8 39.5551C55.8 33.6813 55.8 27.7292 55.8 21.6986C54.5277 21.8554 53.2553 22.0152 51.983 22.1779C51.983 21.4226 51.983 20.6644 51.983 19.9033C57.2118 16.7399 60.2968 12.7224 62.8677 8.13847C62.9723 8.12685 63.0768 8.11232 63.1814 8.09489C63.1814 11.5111 63.1814 14.8953 63.1814 18.2476C65.5518 17.9745 67.9222 17.7072 70.2926 17.4458C70.2926 18.3173 70.2926 19.1858 70.2926 20.0515C67.9222 20.3013 65.5518 20.557 63.1814 20.8184C63.1814 26.6515 63.1814 32.3974 63.1814 38.0561C63.1814 41.0017 64.6455 42.1956 66.7893 42.0039C67.8874 41.8993 69.3514 41.4462 70.8678 40.4352C69.6129 43.834 67.0943 47.1194 62.7544 47.529ZM81.4736 45.8471C75.9311 46.2828 73.0552 42.1782 73.0552 37.9341C73.0552 31.8251 78.7111 27.7292 85.16 28.1039C86.4672 28.1736 87.9835 28.4263 89.1862 28.8621C89.1862 27.6943 89.1862 26.5178 89.1862 25.3326C89.1862 20.9665 88.1927 18.4567 86.3103 18.5177C83.1556 18.6659 75.9398 25.8555 75.26 26.9623C75.1729 26.9681 75.0857 26.9768 74.9986 26.9884C74.9986 24.3101 74.9986 21.6085 74.9986 18.8837C79.4954 16.9752 83.8876 15.9381 86.7199 15.7987C93.5784 15.6593 96.5675 19.9644 96.5675 25.8555C96.5675 29.9398 96.5675 33.9428 96.5675 37.8644C96.5588 40.871 97.5 42.1608 99.9053 41.1847C99.9401 41.237 99.975 41.2922 100.01 41.3503C99.5393 43.651 97.7092 45.3068 94.7723 45.2283C92.001 45.2283 90.1186 43.8078 89.4389 41.2021C88.0794 43.3024 85.465 45.5769 81.4736 45.8471ZM80.7503 36.2957C80.7503 39.4941 82.685 41.6553 85.5173 41.5072C86.8768 41.4462 88.1317 40.7664 89.1775 39.6073C89.1775 39.3982 89.1775 39.1803 89.1775 38.9625C89.1775 36.2202 89.1804 33.4315 89.1862 30.5963C88.8724 30.605 88.5064 30.6137 88.1404 30.5615C83.2079 30.0473 80.7503 32.9144 80.7503 36.2957ZM107.077 11.6156C104.568 11.4065 102.363 8.6875 102.363 5.44562C102.354 2.07302 104.454 -0.314817 107.069 0.0337717C109.631 0.39979 111.783 3.24951 111.783 6.46524C111.783 9.59383 109.587 11.8509 107.077 11.6156ZM112.402 45.7164C112.402 45.7861 112.402 45.8587 112.402 45.9342C109.056 45.667 105.706 45.4143 102.354 45.1761C102.354 45.1005 102.354 45.0279 102.354 44.9582C102.511 44.2872 103.722 40.505 103.722 36.8448C103.722 33.2543 103.722 29.6057 103.722 25.8991C103.722 21.8642 102.52 17.3674 102.363 16.4785C102.363 16.4146 102.363 16.3506 102.363 16.2867C105.262 16.4727 108.161 16.6847 111.06 16.9229C111.06 23.8889 111.057 30.6777 111.051 37.2892C111.051 40.9843 112.254 45.0018 112.402 45.7164ZM125.797 46.9364C125.797 47.0061 125.797 47.0817 125.797 47.163C122.462 46.8493 119.13 46.5385 115.801 46.2305C115.801 46.155 115.801 46.0795 115.801 46.004C115.958 45.3155 117.16 41.481 117.169 37.7685C117.169 34.1665 117.169 30.5266 117.169 26.849C117.169 22.8838 115.967 18.4306 115.81 17.5678C115.81 17.5039 115.81 17.4429 115.81 17.3848C118.709 17.6985 121.608 18.0239 124.507 18.3608C124.507 20.0108 124.507 21.6521 124.507 23.2847C126.442 20.4437 129.065 18.5787 132.725 19.0493C136.141 19.5025 139.078 21.6986 140.228 25.7422C142.215 22.6921 144.952 20.7225 148.83 21.2628C153.239 21.899 156.926 25.3762 156.926 31.7467C156.92 35.128 156.914 38.5035 156.908 41.8732C156.891 45.5072 158.076 49.5334 158.172 50.2393C158.172 50.3148 158.172 50.3904 158.172 50.4659C154.831 50.1173 151.494 49.7687 148.159 49.4201C148.159 49.3388 148.159 49.2633 148.159 49.1935C148.324 48.5051 149.544 44.7142 149.553 41.0453C149.559 37.9951 149.565 34.9392 149.571 31.8774C149.571 28.0865 147.209 26.1954 144.743 25.8729C143.322 25.6899 141.963 26.1344 140.542 27.0494C140.699 27.8599 140.804 28.7837 140.804 29.7423C140.804 33.2049 140.801 36.6531 140.795 40.0867C140.786 43.7817 141.98 47.8428 142.085 48.5661C142.079 48.6358 142.076 48.7113 142.076 48.7927C138.747 48.4499 135.412 48.1129 132.071 47.7818C132.077 47.7004 132.08 47.622 132.08 47.5465C132.237 46.858 133.448 43.0235 133.457 39.311C133.457 36.2144 133.46 33.1003 133.466 29.9689C133.466 26.0124 131.052 24.1561 128.542 23.8598C127.182 23.703 125.814 24.1387 124.507 25.0538C124.507 29.5622 124.504 34.0183 124.498 38.4221C124.498 42.1433 125.692 46.2131 125.797 46.9364ZM173.867 52.662C167.366 51.9735 160.778 46.6314 160.821 37.1498C160.83 28.3392 166.346 23.7901 174.12 24.9143C182.756 26.1257 186.373 32.9319 186.321 39.5638C180.517 38.8782 174.742 38.1868 168.996 37.4897C169.492 43.1978 171.933 47.4855 177.318 48.0781C180.063 48.3744 182.573 47.7556 185.658 45.8297C185.728 45.8703 185.798 45.911 185.867 45.9517C184.342 49.5334 180.194 53.3243 173.867 52.662ZM168.952 35.5463C168.952 35.7642 168.952 35.982 168.952 36.1912C172.217 36.0808 175.494 35.9704 178.782 35.86C178.678 31.7031 177.597 27.4939 174.024 26.9971C170.163 26.4655 168.908 31.0059 168.952 35.5463Z" fill="#956A2E"/>
</g>
<defs>
<clipPath id="clip0_352_915">
<rect width="186.647" height="76" fill="white" transform="translate(0.176514)"/>
</clipPath>
</defs>
</svg>
